<svg xmlns="http://www.w3.org/2000/svg" width="201" height="98" viewBox="0 0 201 98">
  <defs>
    <style>
      .cls-1, .cls-2 {
        fill: #ebb73f;
      }

      .cls-1 {
        stroke: #707070;
      }

      .cls-2 {
        font-size: 46px;
        font-family: FranklinGothic-Medium, Franklin Gothic;
        font-weight: 500;
        letter-spacing: -0.03em;
      }

      .cls-3 {
        fill: #3fc9eb;
      }
    </style>
  </defs>
  <g id="Group_1" data-name="Group 1" transform="translate(-355 552)">
    <path id="Subtraction_1" data-name="Subtraction 1" class="cls-1" d="M43.638,87.277a44,44,0,0,1-8.795-.887,43.438,43.438,0,0,1-15.6-6.566A43.869,43.869,0,0,1,7.453,68.036a43.715,43.715,0,1,1,36.185,19.24ZM23.662,60.88l-8.668,5.846,1.852,2.747c2.22,3.29,4.049,5.464,5.437,6.463a7.742,7.742,0,0,0,4.622,1.329c.239,0,.493-.008.753-.023a15.462,15.462,0,0,0,7.4-2.98,15.723,15.723,0,0,0,5.14-5.2,8.131,8.131,0,0,0,.915-5.677,11.046,11.046,0,0,0-.309-1.16,10.9,10.9,0,0,0,2.2,1.2,8.8,8.8,0,0,0,3.346.645,10.747,10.747,0,0,0,1.971-.19,17.627,17.627,0,0,0,6.38-2.9,16.163,16.163,0,0,0,4.36-4.158A9.519,9.519,0,0,0,60.8,52.232a8.74,8.74,0,0,0-.23-2.913A12.139,12.139,0,0,0,63.566,50.7a8,8,0,0,0,2.373.356,9.548,9.548,0,0,0,2.423-.328,19.244,19.244,0,0,0,5.655-2.769,15.23,15.23,0,0,0,3.807-3.566,9.311,9.311,0,0,0,1.742-4.452,9.651,9.651,0,0,0-.491-4.57,33.238,33.238,0,0,0-3.45-6.039L67.81,17.742a35.9,35.9,0,0,0-4.276-5.482,9.725,9.725,0,0,0-3.7-2.219A8.471,8.471,0,0,0,57.2,9.652a13.6,13.6,0,0,0-2.373.226,15.134,15.134,0,0,0-5.779,2.446,14.053,14.053,0,0,0-4.984,5.453,8.572,8.572,0,0,0-.707,6.034c.014.053.029.107.045.162l.008.027a10.633,10.633,0,0,0-1-.677,8.235,8.235,0,0,0-4.282-1.152,10.422,10.422,0,0,0-1.308.085,16.073,16.073,0,0,0-6.781,2.858,16.5,16.5,0,0,0-4.594,4.457,9.622,9.622,0,0,0-1.684,5.209,10.413,10.413,0,0,0,.336,2.876,9.783,9.783,0,0,0-4.142-2.216,6.29,6.29,0,0,0-1.479-.17c-2.319,0-5.2,1.151-8.565,3.42-3.288,2.218-5.324,4.447-6.051,6.626s.035,4.957,2.263,8.259l2,2.961,8.667-5.846-1.924-2.853A7.84,7.84,0,0,1,13.438,45a1.547,1.547,0,0,1,.821-1.444,1.752,1.752,0,0,1,.977-.333,1.485,1.485,0,0,1,.583.123,6.106,6.106,0,0,1,2,2.15l1.3,1.931a8.611,8.611,0,0,1,1.356,2.706,2.021,2.021,0,0,1-.356,1.739,21.16,21.16,0,0,1-3.659,2.812l3.4,5.042a16.647,16.647,0,0,1,3.636-1.968,2.6,2.6,0,0,1,.707-.1,2.873,2.873,0,0,1,1.44.415,8.526,8.526,0,0,1,2.419,2.614l1.62,2.4a17.482,17.482,0,0,1,2.4,4.251,1.562,1.562,0,0,1-.809,1.67,1.847,1.847,0,0,1-1.006.368,1.1,1.1,0,0,1-.6-.176,11.066,11.066,0,0,1-2.2-2.683Zm25.965-4.6A1.619,1.619,0,0,1,48.9,56.1a8.771,8.771,0,0,1-2.424-2.736l-4.24-6.286a6.409,6.409,0,0,1-1.31-2.846,1.758,1.758,0,0,1,.877-1.544,1.964,1.964,0,0,1,1.092-.374,1.641,1.641,0,0,1,.7.164,6.6,6.6,0,0,1,2.115,2.256l4.385,6.5c1.076,1.594,1.543,2.723,1.389,3.355a2.131,2.131,0,0,1-.789,1.328A1.908,1.908,0,0,1,49.627,56.279Zm-22.064-6.6v0a9.106,9.106,0,0,0,1.193-3.9c.453.683.974,1.462,1.594,2.38l1.005,1.49a6.015,6.015,0,0,0-1.765-.259,7.673,7.673,0,0,0-2.027.29Zm41.283-6.341a1.154,1.154,0,0,1-.6-.169,15.313,15.313,0,0,1-2.749-3.452L54.062,22.769a13.709,13.709,0,0,1-2-3.632,1.5,1.5,0,0,1,.777-1.6,1.886,1.886,0,0,1,1.032-.374,1.192,1.192,0,0,1,.693.225,15.762,15.762,0,0,1,2.605,3.284L68.78,37.877a13.214,13.214,0,0,1,1.913,3.485,1.48,1.48,0,0,1-.774,1.583A1.968,1.968,0,0,1,68.846,43.339ZM38.322,41.278l-3.732-5.532c-.888-1.317-1.44-2.18-1.687-2.639a1.962,1.962,0,0,1-.215-1.384,1.843,1.843,0,0,1,.819-1.146,2.288,2.288,0,0,1,1.273-.439,1.726,1.726,0,0,1,.272.022,1.919,1.919,0,0,1,1.231.715c.321.4,1.033,1.415,2.116,3.021l7.323-4.939c.472.794,1.023,1.661,1.641,2.577l1.554,2.3a8.1,8.1,0,0,0-2.273-.353l-.187,0a8.625,8.625,0,0,0-4.886,1.551,8,8,0,0,0-2.705,2.839,5.473,5.473,0,0,0-.542,3.4Z" transform="translate(355.5 -546.948)"/>
    <text id="park_finder" data-name="park
finder" class="cls-2" transform="translate(448 -510)"><tspan x="0" y="0">park</tspan><tspan class="cls-3"><tspan x="0" y="46">finder</tspan></tspan></text>
  </g>
</svg>
